# AST/ASF file generated using VICON BodyLanguage
# -----------------------------------------------
:version 1.10
:name VICON
:units
  mass 1.0
  length 0.45
  angle deg
:documentation
   .ast/.asf automatically generated from VICON data using
   VICON BodyBuilder and BodyLanguage model FoxedUp or BRILLIANT.MOD
:root
   order TX TY TZ RX RY RZ
   axis XYZ
   position 0 0 0  
   orientation 0 0 0 
:bonedata
  begin
     id 1 
     name lhipjoint
     direction 0.535335 -0.74333 0.401095 
     length 2.04549 
     axis 0 0 0  XYZ
  end
  begin
     id 2 
     name lfemur
     direction 0.34202 -0.939693 0  
     length 6.95643  
     axis 0 0 20  XYZ
    dof rx ry rz
    limits (-160.0 20.0)
           (-70.0 70.0)
           (-60.0 70.0)
  end
  begin
     id 3 
     name ltibia
     direction 0.34192 -0.939729 0   
     length 5.55969   
     axis 0 0 20   XYZ
    dof rx
    limits (-10.0 170.0)
  end
  begin
     id 4 
     name lfoot
     direction 0.216943 -0.596046 0.773088   
     length 2.27918   
     axis -90 7.62852e-016 20   XYZ
    dof rx rz
    limits (-45.0 90.0)
           (-70.0 20.0)
  end
  begin
     id 5 
     name ltoes
     direction 1.53519e-011 -4.21748e-011 1   
     length 1.05562   
     axis -90 7.62852e-016 20   XYZ
    dof rx
    limits (-90.0 20.0)
  end
  begin
     id 6 
     name rhipjoint
     direction -0.576368 -0.719173 0.38806   
     length 2.1142  
     axis 0 0 0  XYZ 
  end
  begin
     id 7 
     name rfemur
     direction -0.34202 -0.939693 0   
     length 7.07928   
     axis 0 0 -20   XYZ
    dof rx ry rz
    limits (-160.0 20.0)
           (-70.0 70.0)
           (-70.0 60.0)
  end
  begin
     id 8 
     name rtibia
     direction -0.34202 -0.939693 0   
     length 5.79974   
     axis 0 0 -20   XYZ
    dof rx
    limits (-10.0 170.0)
 end
 begin
     id 9 
     name rfoot
     direction -0.189288 -0.520065 0.832888   
     length 2.42173  
     axis -90 -7.62852e-016 -20   XYZ
    dof rx rz
    limits (-45.0 90.0)
           (-20.0 70.0)
  end
  begin
     id 10 
     name rtoes
     direction -1.53574e-011 -4.21658e-011 1   
     length 1.14469   
     axis -90 -7.62852e-016 -20   XYZ
    dof rx
    limits (-90.0 20.0)
  end
  begin
     id 11 
     name lowerback
     direction -0.00135702 0.993803 0.111144   
     length 1.91308   
     axis 0 0 0   XYZ
    dof rx ry rz
    limits (-20.0 45.0)
           (-30.0 30.0)
           (-30.0 30.0)
  end
  begin
     id 12 
     name upperback
     direction -0.0056745 0.999813 0.0184631   
     length 1.9212   
     axis 0 0 0   XYZ
    dof rx ry rz
    limits (-20.0 45.0)
           (-30.0 30.0)
           (-30.0 30.0)
  end
  begin
     id 13 
     name thorax
     direction -0.00733434 0.999426 -0.0330788   
     length 1.94196   
     axis 0 0 0   XYZ
    dof rx ry rz
    limits (-20.0 45.0)
           (-30.0 30.0)
           (-30.0 30.0)
  end
  begin
     id 14 
     name lowerneck
     direction 0.0563074 0.996944 -0.0541571   
     length 2.34257   
     axis 0 0 0   XYZ
    dof rx ry rz
    limits (-20.0 45.0)
           (-30.0 30.0)
           (-30.0 30.0)
  end
  begin
     id 15 
     name upperneck
     direction -0.0544519 0.976166 -0.210085   
     length 2.32506   
     axis 0 0 0   XYZ
    dof rx ry rz
    limits (-20.0 45.0)
           (-30.0 30.0)
           (-30.0 30.0)
  end
  begin
     id 16
     name head
     direction -0.0226035 0.997615 -0.0652205  
     length 2.3648  
     axis 0 0 0   XYZ
    dof rx ry rz
    limits (-20.0 45.0)
           (-30.0 30.0)
           (-30.0 30.0)
  end
  begin
     id 17 
     name lclavicle
     direction 0.92109 0.381297 -0.0787716  
     length 4.0487  
     axis 0 0 0   XYZ
    dof ry rz
    limits (-20.0 10.0)
           (0.0 20.0)
  end
  begin
     id 18 
     name lhumerus
     direction 1 -4.48986e-011 3.56724e-027   
     length 4.94991   
     axis 180 -30 -90   XYZ
    dof rx ry rz
    limits (-60.0 90.0)
           (-90.0 90.0)
           (-90.0 90.0)
  end
  begin
     id 19
     name lradius
     direction 1 -4.48981e-011 8.62147e-027   
     length 2.7606   
     axis 180 -30 -90   XYZ
    dof rx
    limits (-10.0 170.0)
  end
  begin
     id 20
     name lwrist
     direction 1 -4.48989e-011 1.59799e-026   
     length 1.3803   
     axis -1.17785e-014 90 90   XYZ
    dof ry
    limits (-180.0 0.0)
 end
  begin
     id 21 
     name lhand
     direction 1 -4.48896e-011 3.19599e-026   
     length 0.843936   
     axis -2.03931e-014 90 90   XYZ
    dof rx rz
    limits (-90.0 90.0)
           (-45.0 45.0)
  end
  begin
     id 22 
     name lfingers
     direction 1 -4.48887e-011 6.39197e-026   
     length 0.680403   
     axis -4.07862e-014 90 90   XYZ
    dof rx
    limits (0.0 90.0)
  end
  begin
     id 23
     name lthumb
     direction 0.707107 -6.348e-011 0.707107   
     length 0.976926   
     axis -90 45 2.85299e-015   XYZ
    dof rx rz
    limits (-45.0 45.0)
           (-45.0 45.0)
  end
  begin
     id 24 
     name rclavicle
     direction -0.951104 0.307692 -0.026953   
     length 4.21801  
     axis 0 0 0   XYZ 
    dof ry rz
    limits (-10.0 20.0)
           (-20.0 0.0)
  end
  begin
     id 25 
     name rhumerus
     direction -1 -4.4896e-011 -1.8171e-018  
     length 4.32982   
     axis 180 30 90   XYZ
    dof rx ry rz
    limits (-90.0 60.0)
           (-90.0 90.0)
           (-90.0 90.0)
  end
  begin
     id 26 
     name rradius
     direction -1 -4.48959e-011 8.25165e-027   
     length 3.20057   
     axis 180 30 90   XYZ
    dof rx
    limits (-10.0 170.0)
  end
  begin
     id 27 
     name rwrist
     direction -1 -4.48997e-011 1.59799e-026   
     length 1.60029   
     axis -1.17785e-014 -90 -90   XYZ
    dof ry
    limits (-180.0 0.0)
  end
  begin
     id 28
     name rhand
     direction -1 -4.49023e-011 3.19599e-026   
     length 0.960433   
     axis -2.03931e-014 -90 -90   XYZ
    dof rx rz
    limits (-90.0 90.0)
           (-45.0 45.0)
  end
  begin
     id 29
     name rfingers
     direction -1 -4.48802e-011 6.39197e-026   
     length 0.774326   
     axis -4.07862e-014 -90 -90   XYZ
    dof rx
    limits (0.0 90.0)
  end
  begin
     id 30
     name rthumb
     direction -0.707107 -6.34876e-011 0.707107   
     length 1.11178   
     axis -90 -45 -2.85299e-015   XYZ
    dof rx rz
    limits (-45.0 45.0)
           (-45.0 45.0)
  end
:hierarchy
  begin
    root lhipjoint rhipjoint lowerback
    lhipjoint lfemur
    lfemur ltibia
    ltibia lfoot
    lfoot ltoes
    rhipjoint rfemur
    rfemur rtibia
    rtibia rfoot
    rfoot rtoes
    lowerback upperback
    upperback thorax
    thorax lowerneck lclavicle rclavicle
    lowerneck upperneck
    upperneck head
    lclavicle lhumerus
    lhumerus lradius
    lradius lwrist
    lwrist lhand lthumb
    lhand lfingers
    rclavicle rhumerus
    rhumerus rradius
    rradius rwrist
    rwrist rhand rthumb
    rhand rfingers
end

#!OML:ASF C:\KaitlinTest1\Natural Motions\Nikki\Session 2\Nikki.ASF
:FULLY-SPECIFIED
:DEGREES
914
root -6.34207 16.0143 6.29481 -169.177 76.5867 -177.976
lowerback -0.757737 6.68717 -5.41715
upperback 0.39734 9.08337 -3.73044
thorax 0.608215 4.55569 -0.748671
lowerneck -2.84836 -21.9437 -11.1156
upperneck 8.19238 39.2365 0.961407
head 45.5882 56.7215 -154.917
rclavicle -7.17613e-014 1.43125e-014
rhumerus -3.37812 -3.55144 -90.6793
rradius 14.2782
rwrist 20.617
rhand -27.757 -1.3499
rfingers 7.12502
rthumb -1.15121 -31.3265
lclavicle -7.17613e-014 1.43125e-014
lhumerus -71.9894 28.9574 47.1609
lradius 21.9639
lwrist -46.1584
lhand -39.1135 0.0627726
lfingers 7.12502
lthumb -12.1131 29.6921
rfemur -6.58038 -20.0514 21.7244
rtibia 31.7138
rfoot -26.626 6.11436
rtoes 4.45278e-014
lfemur -42.8372 -3.92085 -16.6789
ltibia 25.348
lfoot 16.5902 -7.18676
ltoes 2.8625e-014
915
root -6.4956 16.0342 6.32054 -169.623 76.4818 -178.407
lowerback -0.548399 6.66659 -5.59787
upperback 0.524201 9.04863 -3.70443
thorax 0.592174 4.53649 -0.645331
lowerneck -2.9684 -21.9183 -11.1598
upperneck 8.13259 39.1797 0.946198
head 45.7816 56.9543 -154.73
rclavicle -8.50798e-014 2.62396e-014
rhumerus -3.30293 -4.02905 -90.4702
rradius 14.3489
rwrist 21.16
rhand -28.1862 -1.16159
rfingers 7.12502
rthumb -1.56577 -31.1356
lclavicle -8.50798e-014 2.62396e-014
lhumerus -71.4218 28.8745 48.1102
lradius 22.2936
lwrist -45.8561
lhand -39.2108 0.0822433
lfingers 7.12502
lthumb -12.2069 29.706
rfemur -7.10269 -19.8406 21.9464
rtibia 31.4657
rfoot -26.4928 5.48532
rtoes 2.06736e-014
lfemur -43.278 -3.98795 -16.6753
ltibia 28.328
lfoot 14.2262 -6.14881
ltoes 6.52014e-014
916
root -6.64528 16.0587 6.34385 -170.23 76.4766 -178.836
lowerback -0.226814 6.73432 -5.66868
upperback 0.680635 9.1251 -3.72472
thorax 0.56561 4.57449 -0.659393
lowerneck -3.04839 -21.9204 -11.1724
upperneck 8.19555 39.452 1.05555
head 46.5221 57.5172 -154.139
rclavicle 6.61953e-014 2.22639e-014
rhumerus -3.28721 -4.65813 -90.2565
rradius 14.4141
rwrist 21.4484
rhand -28.5004 -0.884836
rfingers 7.12502
rthumb -1.86925 -30.8564
lclavicle 6.61953e-014 2.22639e-014
lhumerus -70.6442 28.5563 49.1708
lradius 22.4788
lwrist -45.6058
lhand -39.2817 0.0280913
lfingers 7.12502
lthumb -12.2753 29.6478
rfemur -7.40367 -19.5357 22.045
rtibia 31.1668
rfoot -26.2722 4.96417
rtoes -2.22639e-014
lfemur -43.4534 -4.02731 -16.6564
ltibia 31.3565
lfoot 12.4366 -5.37329
ltoes -4.45278e-014
917
root -6.79229 16.0853 6.36692 -170.911 76.4849 -179.475
lowerback -0.00451627 6.73124 -5.87217
upperback 0.740524 9.11087 -3.77899
thorax 0.482536 4.56908 -0.632219
lowerneck -3.02035 -21.91 -11.1699
upperneck 8.1962 39.4037 1.07423
head 46.7518 57.7184 -153.877
rclavicle -3.67752e-014 4.37326e-014
rhumerus -3.39665 -5.6105 -90.2244
rradius 14.423
rwrist 22.5395
rhand -28.8031 -0.783401
rfingers 7.12502
rthumb -2.16159 -30.7522
lclavicle -3.67752e-014 4.37326e-014
lhumerus -70.1059 28.3952 49.7285
lradius 22.5443
lwrist -45.3518
lhand -39.5331 -0.471298
lfingers 7.12502
lthumb -12.5176 29.1338
rfemur -7.84628 -19.2594 22.1104
rtibia 30.8657
rfoot -25.9499 4.55705
rtoes 4.37326e-014
lfemur -43.6955 -4.05202 -16.7018
ltibia 34.4085
lfoot 11.0461 -4.25028
ltoes 3.65764e-014
918
root -6.93223 16.132 6.38831 -171.974 76.5574 -180.604
lowerback -0.0610314 6.69534 -6.22832
upperback 0.84968 9.08363 -3.85209
thorax 0.586379 4.55201 -0.502965
lowerneck -3.04937 -21.8221 -11.2076
upperneck 8.20732 39.5042 1.1207
head 47.0838 58.0584 -153.598
rclavicle -9.02482e-014 3.65764e-014
rhumerus -3.39164 -5.68011 -90.1464
rradius 14.3904
rwrist 22.5022
rhand -29.2034 -0.613504
rfingers 7.12502
rthumb -2.5481 -30.578
lclavicle -9.02482e-014 3.65764e-014
lhumerus -69.3658 28.167 50.7254
lradius 22.8
lwrist -44.5195
lhand -39.308 -0.148103
lfingers 7.12502
lthumb -12.3006 29.4701
rfemur -8.44378 -18.6801 21.9779
rtibia 30.5674
rfoot -25.1328 4.39026
rtoes -4.77083e-015
lfemur -43.9127 -4.00068 -16.9036
ltibia 37.3768
lfoot 9.76756 -2.98997
ltoes -3.49861e-014
919
root -7.07703 16.1741 6.40829 -172.528 76.6463 -181.255
lowerback 0.00850257 6.70245 -6.37336
upperback 0.84146 9.09275 -3.95897
thorax 0.534833 4.55946 -0.544752
lowerneck -2.90947 -21.722 -11.2872
upperneck 8.28484 39.6315 1.22257
head 47.4249 58.4743 -153.355
rclavicle 6.79844e-014 -6.20208e-014
rhumerus -3.57568 -6.46236 -90.2227
rradius 14.3052
rwrist 22.7833
rhand -29.8593 -0.284408
rfingers 7.12502
rthumb -3.18163 -30.2404
lclavicle 6.79844e-014 -6.20208e-014
lhumerus -68.9954 28.167 50.7805
lradius 22.6411
lwrist -45.1042
lhand -39.6042 -0.000260774
lfingers 7.12502
lthumb -12.5862 29.6006
rfemur -9.08508 -18.3152 21.9847
rtibia 30.2495
rfoot -24.33 4.3145
rtoes 3.89618e-014
lfemur -44.1347 -3.98289 -16.9168
ltibia 40.2365
lfoot 9.06837 -1.56617
ltoes 1.47896e-013
920
root -7.21755 16.2168 6.42227 -173.226 76.8085 -182.109
lowerback -0.0364543 6.68917 -6.54769
upperback 0.799498 9.08361 -4.07804
thorax 0.51032 4.55752 -0.57082
lowerneck -2.7055 -21.4175 -11.5524
upperneck 8.49951 40.2553 1.48987
head 48.1931 59.4348 -153.004
rclavicle -7.27552e-014 0
rhumerus -3.79371 -7.67806 -90.2185
rradius 14.1481
rwrist 24.3533
rhand -30.0884 -0.0503426
rfingers 7.12502
rthumb -3.40285 -30.0029
lclavicle -7.27552e-014 0
lhumerus -68.7904 28.2226 50.5787
lradius 22.4268
lwrist -46.1573
lhand -39.9979 0.0693302
lfingers 7.12502
lthumb -12.9658 29.6465
rfemur -9.80697 -17.8979 21.8997
rtibia 30.0357
rfoot -23.5525 4.31302
rtoes -7.15625e-015
lfemur -44.2972 -3.90608 -16.981
ltibia 42.9583
lfoot 8.72678 -0.528995
ltoes -1.24042e-013
